<?xml version="1.0" standalone="no"?>
<!DOCTYPE svg PUBLIC "-//W3C//DTD SVG 20010904//EN"
 "http://www.w3.org/TR/2001/REC-SVG-20010904/DTD/svg10.dtd">
<svg version="1.0" xmlns="http://www.w3.org/2000/svg"
 width="960.000000pt" height="906.000000pt" viewBox="0 0 960.000000 906.000000"
 preserveAspectRatio="xMidYMid meet">

<g transform="translate(0.000000,906.000000) scale(0.100000,-0.100000)"
fill="#000000" stroke="none">
<path d="M5555 8376 c-149 -12 -151 -12 -270 -65 -151 -67 -265 -123 -301
-148 -16 -11 -48 -32 -72 -48 -58 -39 -314 -319 -361 -398 -22 -35 -53 -102
-69 -148 -29 -84 -30 -85 -26 -274 7 -420 6 -547 -5 -558 -7 -7 -18 -7 -36 1
-98 45 -211 -53 -223 -192 -4 -54 -1 -76 46 -302 34 -159 85 -277 149 -340 39
-37 112 -76 170 -88 17 -4 36 -13 41 -19 12 -14 28 -134 37 -272 3 -55 10
-136 15 -180 15 -124 38 -398 45 -525 4 -63 15 -200 26 -305 10 -104 19 -219
19 -255 l-1 -65 -142 -70 c-78 -38 -164 -85 -191 -103 -28 -19 -57 -33 -66
-32 -56 4 -74 0 -99 -24 -24 -23 -29 -24 -47 -12 -11 8 -32 12 -46 9 -23 -4
-26 -9 -22 -32 4 -19 -2 -33 -21 -53 -14 -16 -29 -28 -34 -28 -4 0 -13 -11
-20 -24 -8 -14 -26 -26 -43 -30 -26 -5 -28 -8 -18 -27 14 -25 5 -69 -14 -69
-8 0 -16 -7 -20 -15 -8 -22 -21 -18 -36 10 -7 14 -22 25 -32 25 -10 0 -36 9
-58 20 -55 28 -68 25 -85 -17 -12 -28 -18 -34 -27 -25 -7 7 -25 12 -40 12 -15
0 -28 5 -28 11 0 19 -28 -9 -52 -52 -15 -28 -28 -39 -45 -39 -23 0 -73 36 -73
53 0 18 -30 37 -58 37 -17 0 -40 -10 -56 -25 -31 -28 -51 -32 -60 -10 -6 18
-96 22 -96 4 0 -5 -4 -8 -8 -5 -5 3 -21 -2 -37 -10 -15 -8 -37 -12 -48 -8 -14
4 -25 0 -37 -16 -12 -16 -23 -21 -35 -16 -15 5 -15 9 -4 24 13 16 13 16 -11 0
-14 -9 -24 -21 -23 -27 2 -6 -3 -8 -10 -5 -23 8 -327 -321 -327 -354 0 -6 -6
-15 -13 -19 -16 -9 -64 -78 -122 -173 -25 -41 -40 -79 -41 -103 -1 -20 -8 -44
-14 -53 -7 -8 -14 -28 -15 -44 -3 -31 -20 -60 -36 -60 -5 0 -8 10 -6 22 2 13
2 17 0 11 -3 -7 -10 -13 -17 -13 -7 0 -18 -12 -25 -26 -10 -22 -9 -30 4 -44
19 -21 20 -70 1 -70 -8 0 -17 12 -20 26 -4 15 -10 24 -13 21 -7 -8 -146 -349
-189 -467 -48 -130 -78 -254 -114 -467 -35 -209 -68 -346 -142 -593 -42 -140
-71 -212 -148 -370 -123 -250 -250 -493 -311 -596 -37 -62 -119 -235 -119
-251 0 -2 533 -3 1185 -3 941 0 1185 3 1185 13 0 8 4 7 11 -3 8 -11 12 -12 16
-2 6 14 33 16 33 2 0 -7 379 -10 1118 -10 l1118 0 11 105 c6 58 16 111 21 118
16 20 25 78 23 148 -1 46 3 71 12 81 24 24 36 54 30 76 -3 12 2 33 11 47 21
32 21 85 0 85 -11 0 -8 6 10 23 19 17 26 37 30 77 3 34 10 57 20 62 18 10 22
83 6 93 -16 10 -12 71 6 86 14 11 18 11 29 -4 7 -9 20 -17 29 -17 24 0 22 60
-3 67 -14 3 -20 18 -25 56 -7 49 -6 52 25 79 17 15 36 28 40 28 5 0 9 7 9 15
0 8 -5 15 -11 15 -7 0 -8 21 -4 65 6 56 5 65 -9 65 -9 0 -16 8 -16 20 0 11 4
20 9 20 5 0 11 21 13 46 3 40 0 49 -24 69 -23 20 -28 32 -28 71 0 33 5 51 18
60 16 13 16 15 0 24 -16 10 -14 14 15 40 24 23 28 29 15 30 -13 0 -18 8 -18
26 0 15 -8 32 -17 39 -15 11 -13 13 15 20 22 4 32 12 32 26 0 10 -5 19 -10 19
-6 0 -15 11 -20 25 -5 14 -14 25 -20 25 -5 0 -10 9 -10 20 0 10 -8 24 -18 29
-14 8 -18 18 -14 43 3 18 11 38 19 43 9 7 16 41 20 103 3 50 10 92 14 92 5 0
9 16 9 35 0 19 -4 35 -10 35 -5 0 -10 11 -10 25 0 14 5 25 10 25 6 0 10 22 10
50 0 36 -5 52 -17 59 -14 8 -15 12 -6 22 12 12 7 19 -59 90 -10 10 -30 22 -45
25 -16 4 -31 11 -34 16 -3 4 -39 14 -81 21 -52 9 -89 22 -117 41 -39 28 -55
65 -28 67 32 3 -74 28 -123 29 -30 0 -68 7 -85 15 l-30 13 50 3 c28 1 102 3
165 4 108 2 152 8 277 41 28 8 63 14 77 14 14 0 26 3 26 8 0 4 33 18 74 30 41
13 82 30 93 37 17 14 17 14 -8 15 -14 0 -29 -4 -35 -9 -20 -18 -82 -32 -169
-37 -49 -3 -103 -12 -120 -20 -37 -19 -310 -28 -368 -13 -26 7 -43 7 -51 0 -8
-6 -26 -7 -56 0 -24 5 -56 7 -72 4 -30 -7 -90 4 -199 36 -36 10 -75 19 -87 19
-11 0 -24 5 -27 10 -3 5 -19 10 -35 10 -16 0 -32 5 -35 10 -8 12 -7 12 135 -1
63 -5 150 -11 193 -13 l77 -2 0 32 c0 43 17 52 32 19 11 -24 13 -25 19 -8 7
16 8 16 8 1 1 -22 21 -24 21 -3 0 20 16 19 24 -1 5 -13 9 -14 21 -4 12 10 16
9 21 -4 6 -15 8 -15 20 1 7 10 14 14 14 10 0 -16 30 22 31 40 0 12 5 9 14 -12
l13 -30 5 35 c3 31 5 32 12 13 4 -13 11 -23 15 -23 4 0 12 10 18 23 10 22 11
22 11 -5 1 -38 21 -35 21 3 0 17 4 28 10 24 6 -3 10 -17 10 -31 0 -13 5 -24
10 -24 6 0 10 9 10 19 0 11 5 23 10 26 6 3 10 -2 10 -11 0 -25 17 -5 23 26 4
25 4 25 12 3 4 -13 12 -23 17 -23 5 0 7 4 3 9 -3 5 -1 12 5 16 6 3 13 -1 16
-9 7 -19 26 -21 23 -3 -1 6 0 26 1 42 l2 30 13 -35 c11 -28 14 -30 14 -12 1
12 6 22 11 22 6 0 10 -10 10 -22 1 -21 2 -21 11 -5 13 22 3 88 -17 114 -14 16
-14 14 -10 -27 5 -42 5 -43 -5 -12 -9 30 -29 45 -29 21 0 -6 -9 -1 -20 12 -10
13 -19 18 -20 12 0 -20 -20 -15 -20 4 0 22 -16 5 -22 -22 -4 -17 -6 -16 -13 8
-10 38 0 46 70 53 156 16 636 171 724 233 14 11 42 25 62 34 20 8 85 44 146
81 61 36 116 66 122 66 6 0 11 5 11 10 0 6 6 10 14 10 16 0 31 34 21 50 -3 5
-25 15 -48 21 -83 22 -103 33 -195 106 -159 127 -405 431 -446 551 -19 53 -22
270 -5 341 5 25 29 72 53 105 157 220 233 355 289 511 33 94 72 180 95 213 11
15 27 54 36 87 9 33 25 92 35 130 11 39 29 124 40 190 11 66 32 148 46 183 32
80 35 139 6 185 -18 30 -21 49 -21 143 1 175 17 345 46 466 24 98 28 134 28
278 1 251 -22 361 -93 450 -20 25 -50 65 -66 90 -59 90 -146 200 -166 211 -12
6 -35 26 -52 45 -16 19 -49 46 -73 60 -24 14 -44 29 -44 34 0 4 -21 15 -46 25
-25 9 -60 32 -78 50 -23 23 -46 34 -79 39 -26 4 -49 11 -52 16 -3 5 -30 20
-59 34 -40 19 -82 28 -158 35 -57 5 -116 14 -131 20 -15 6 -49 10 -75 8 -26
-1 -72 1 -102 4 -30 4 -122 1 -205 -5z m335 -5163 l0 -38 -15 29 c-15 28 -13
46 6 46 5 0 9 -17 9 -37z m-40 13 c0 -9 -9 -12 -25 -8 -29 5 -26 17 4 19 12 1
21 -4 21 -11z m-340 -406 c0 -5 -4 -10 -9 -10 -6 0 -13 5 -16 10 -3 6 1 10 9
10 9 0 16 -4 16 -10z m-330 -405 c0 -14 -4 -25 -10 -25 -5 0 -10 11 -10 25 0
14 5 25 10 25 6 0 10 -11 10 -25z m60 -60 c0 -20 -5 -25 -25 -25 -20 0 -25 5
-25 25 0 20 5 25 25 25 20 0 25 -5 25 -25z m-120 -45 c0 -27 3 -30 30 -30 17
0 30 -4 30 -10 0 -5 7 -10 15 -10 10 0 15 -10 15 -34 0 -24 5 -36 18 -39 9 -3
-9 -5 -41 -6 -39 -1 -63 4 -73 13 -16 17 -20 146 -4 146 6 0 10 -13 10 -30z
m-70 -145 c0 -22 -4 -25 -40 -25 -36 0 -40 3 -40 25 0 23 4 25 40 25 36 0 40
-2 40 -25z m-60 -112 c0 -13 -80 -52 -86 -42 -3 5 2 9 10 9 9 0 16 6 16 14 0
13 16 22 48 25 6 0 12 -2 12 -6z m-193 -288 c0 -45 -19 -67 -40 -46 -7 7 -5
12 6 17 9 3 17 14 17 24 0 17 9 50 14 50 2 0 3 -20 3 -45z m20 -2 c-3 -10 -5
-4 -5 12 0 17 2 24 5 18 2 -7 2 -21 0 -30z m-240 -167 c19 -19 33 -41 30 -48
-4 -8 -6 -7 -6 5 -1 9 -8 18 -16 18 -35 3 -40 6 -37 18 1 7 -3 19 -9 27 -22
27 2 14 38 -20z m-37 -81 c0 -15 -6 -25 -14 -25 -8 0 -21 -3 -30 -6 -25 -9
-20 21 7 39 31 22 37 21 37 -8z m96 -12 c-10 -10 -19 5 -10 18 6 11 8 11 12 0
2 -7 1 -15 -2 -18z m-16 -28 c0 -8 -4 -15 -10 -15 -5 0 -10 7 -10 15 0 8 5 15
10 15 6 0 10 -7 10 -15z m-118 -12 l38 -17 0 -73 c0 -71 1 -73 25 -73 21 0 25
-5 25 -28 0 -16 -8 -32 -20 -40 -12 -7 -20 -8 -20 -2 0 5 -7 10 -15 10 -10 0
-15 -10 -15 -29 0 -16 -5 -31 -12 -33 -8 -3 -12 -36 -12 -102 l0 -97 -28 -6
c-22 -4 -29 -12 -34 -42 -4 -20 -9 -30 -11 -23 -8 23 -23 12 -23 -18 0 -16 -5
-30 -11 -30 -8 0 -10 -18 -6 -58 7 -61 1 -102 -14 -102 -5 0 -9 18 -9 39 0 27
-5 41 -16 45 -15 6 -16 -1 -10 -55 10 -86 -6 -109 -70 -101 -34 4 -50 1 -58
-10 -6 -8 -19 -17 -28 -21 -14 -5 -18 -18 -18 -52 0 -40 -3 -47 -27 -56 l-28
-11 30 -12 30 -13 -22 -12 c-14 -7 -23 -21 -23 -36 0 -14 -4 -25 -8 -25 -23 0
-42 -92 -22 -105 12 -7 13 -55 2 -71 -14 -21 -42 -22 -81 -3 -23 11 -41 24
-41 29 0 6 -10 15 -23 21 -19 8 -22 16 -19 50 4 37 10 44 41 40 10 -2 12 10 6
59 -6 51 -4 64 11 81 11 12 18 34 17 56 -1 21 2 31 7 23 13 -21 23 7 26 70 2
71 12 101 36 119 14 9 18 20 14 36 -5 18 -1 25 14 30 11 3 23 17 26 31 3 13
12 24 20 24 9 0 14 12 14 34 0 21 6 36 15 40 9 3 15 18 15 38 1 30 2 31 14 15
12 -16 14 -13 20 27 4 25 11 48 17 51 5 4 9 14 9 24 0 10 9 26 20 36 11 10 20
26 20 37 0 10 6 18 13 18 22 0 46 38 50 81 3 32 9 44 25 50 15 6 22 17 22 34
0 14 5 25 10 25 6 0 10 7 10 15 0 10 10 15 30 15 17 0 30 5 30 11 0 6 -9 9
-20 6 -21 -5 -25 7 -14 37 8 20 9 20 56 -1z m126 -74 c-3 -8 -7 -3 -11 10 -4
17 -3 21 5 13 5 -5 8 -16 6 -23z m49 -81 c-3 -8 -6 -5 -6 6 -1 11 2 17 5 13 3
-3 4 -12 1 -19z m1099 -113 c18 -44 18 -92 -1 -129 -18 -35 -20 -82 -2 -89 8
-4 1 -16 -21 -34 -24 -21 -32 -36 -32 -60 0 -23 5 -33 15 -33 10 0 15 -10 15
-34 0 -37 -15 -46 -79 -46 l-34 0 7 68 c4 37 14 77 22 89 7 12 14 29 14 37 0
8 9 16 19 18 18 3 18 6 6 42 -21 60 -30 140 -15 131 16 -10 30 12 30 48 0 42
37 37 56 -8z m-1206 -120 c0 -22 -22 -40 -34 -28 -3 4 -6 19 -6 34 0 22 4 26
20 22 13 -3 20 -14 20 -28z m1155 -365 c-3 -5 -10 -10 -16 -10 -5 0 -9 5 -9
10 0 6 7 10 16 10 8 0 12 -4 9 -10z m-1538 -227 c-3 -10 -5 -4 -5 12 0 17 2
24 5 18 2 -7 2 -21 0 -30z m1397 -152 c3 -4 3 -11 0 -14 -8 -8 -34 3 -34 14 0
11 27 12 34 0z m-1584 -217 c0 -13 -4 -24 -10 -24 -5 0 -28 -18 -50 -39 -48
-46 -80 -46 -80 0 0 19 5 29 15 29 10 0 15 10 15 29 0 28 3 30 43 33 57 4 67
0 67 -28z"/>
<path d="M4215 650 c-3 -5 -1 -10 4 -10 6 0 11 5 11 10 0 6 -2 10 -4 10 -3 0
-8 -4 -11 -10z"/>
<path d="M6420 3297 c0 -9 -4 -17 -10 -17 -5 0 -10 5 -10 12 0 6 -2 9 -4 7 -2
-2 0 -22 4 -44 6 -30 8 -34 9 -13 1 29 17 46 24 26 2 -7 8 -10 12 -6 4 4 0 17
-9 30 -13 18 -16 19 -16 5z"/>
<path d="M6270 3292 c0 -7 4 -12 8 -12 5 0 6 -14 4 -31 -4 -27 -2 -30 15 -25
18 6 20 3 17 -21 -2 -16 -1 -21 2 -13 12 25 28 37 45 33 11 -3 20 3 24 17 9
28 -1 37 -25 22 -14 -8 -20 -9 -20 -1 0 6 -6 9 -12 6 -7 -2 -23 5 -35 16 -13
11 -23 15 -23 9z"/>
<path d="M6210 3269 c0 -11 16 -36 36 -56 l36 -38 -7 45 c-9 56 -9 57 -40 62
-19 4 -25 1 -25 -13z"/>
<path d="M6110 3200 c0 -22 5 -40 10 -40 6 0 10 18 10 40 0 22 -4 40 -10 40
-5 0 -10 -18 -10 -40z"/>
<path d="M6175 3231 c-3 -5 2 -16 10 -24 8 -9 15 -26 15 -38 0 -12 3 -20 6
-16 3 3 3 24 -1 46 -6 39 -18 51 -30 32z"/>
<path d="M6070 3208 c0 -7 5 -31 11 -52 9 -32 13 -37 20 -23 6 11 5 28 -5 52
-15 36 -26 45 -26 23z"/>
<path d="M6150 3170 c0 -11 -4 -20 -10 -20 -5 0 -10 -5 -10 -10 0 -6 11 -3 25
6 28 18 33 44 10 44 -8 0 -15 -9 -15 -20z"/>
<path d="M6650 3070 c-8 -5 -11 -12 -8 -16 4 -3 14 1 23 10 18 17 9 21 -15 6z"/>
<path d="M6559 3036 c-3 -3 -20 -8 -39 -11 -34 -6 -120 -42 -120 -51 0 -6 44
5 130 33 85 28 94 33 58 33 -13 0 -27 -2 -29 -4z"/>
<path d="M2473 2968 c-23 -30 -24 -41 -2 -21 12 12 20 25 17 28 -3 3 -10 0
-15 -7z"/>
<path d="M6829 2520 c-20 -25 -106 -53 -113 -36 -2 6 -8 1 -11 -11 -7 -23 -35
-33 -35 -13 0 6 -5 10 -11 10 -6 0 -8 -8 -4 -19 4 -14 -3 -24 -29 -39 l-35
-21 1 -71 c2 -64 -1 -74 -21 -89 -22 -17 -22 -21 -15 -117 5 -77 11 -103 25
-117 11 -10 19 -26 19 -36 0 -11 7 -22 16 -25 10 -4 14 -15 12 -33 -4 -37 -21
-36 -29 2 -11 54 0 -117 15 -230 8 -60 20 -111 26 -113 18 -6 11 -59 -11 -84
-17 -19 -22 -39 -24 -100 -2 -42 -9 -95 -15 -118 -7 -24 -9 -64 -5 -91 6 -40
3 -52 -13 -70 -11 -11 -25 -18 -31 -15 -5 3 -12 -3 -16 -14 -6 -19 -12 -20
-66 -14 l-59 7 0 -47 c0 -34 4 -46 15 -46 9 0 15 -9 15 -25 0 -33 -32 -34 -50
0 -7 14 -26 27 -44 31 -17 3 -37 11 -44 17 -7 5 -16 7 -20 3 -7 -8 28 -41 50
-48 15 -5 12 -80 -4 -89 -8 -5 -9 -39 -4 -112 6 -103 6 -105 -19 -136 -27 -32
-32 -88 -7 -83 8 1 12 -10 12 -33 0 -33 -1 -34 -29 -29 -27 6 -29 4 -34 -32
-3 -23 1 -51 9 -68 16 -34 19 -86 4 -86 -15 0 -13 -127 3 -137 18 -12 39 -53
27 -53 -5 0 -10 -14 -10 -31 0 -19 -7 -37 -17 -45 -15 -11 102 -13 705 -14
650 0 722 2 722 16 0 8 7 22 15 30 8 9 17 27 21 42 3 15 9 34 13 42 5 9 12 31
16 50 4 19 16 49 26 66 18 30 18 31 -7 68 -30 43 -34 104 -10 141 18 28 21 61
5 71 -16 9 -1 54 27 82 13 14 24 31 24 38 0 8 6 14 13 14 7 0 18 14 24 30 6
17 18 30 26 30 17 0 104 47 113 61 3 5 10 7 15 3 6 -3 18 1 27 9 10 9 50 18
101 22 87 8 112 20 126 65 4 12 14 30 23 40 10 10 23 25 30 34 15 18 16 82 2
91 -6 4 -8 10 -5 14 2 5 -2 17 -9 27 -13 17 -16 18 -33 3 -10 -9 -28 -20 -40
-23 -13 -4 -23 -12 -23 -17 0 -5 -8 -9 -17 -9 -31 0 -103 -32 -103 -46 0 -8
-8 -14 -17 -14 -15 0 -16 2 -3 10 8 5 11 10 5 10 -17 0 -40 -19 -32 -26 4 -4
2 -13 -5 -21 -6 -8 -12 -31 -12 -51 -1 -29 -5 -36 -18 -34 -9 1 -22 -7 -28
-18 -14 -26 -30 -26 -30 0 0 28 -18 25 -32 -5 -6 -14 -18 -25 -27 -25 -9 0
-28 -7 -43 -14 -16 -8 -28 -11 -28 -5 0 5 -11 9 -24 9 -13 0 -29 7 -36 15 -16
19 7 48 60 75 69 36 119 99 68 87 -13 -3 -35 -9 -49 -12 -23 -6 -28 -2 -38 26
-9 27 -9 34 4 41 8 5 15 19 15 32 0 36 28 121 49 147 24 31 38 124 21 144 -14
16 -6 108 16 189 7 28 15 109 16 179 3 107 1 133 -13 156 -23 38 -75 74 -91
64 -30 -19 -83 -32 -92 -23 -7 7 -2 10 12 10 23 0 27 7 14 28 -7 9 -13 8 -27
-8 -22 -24 -35 -26 -35 -4 0 12 -9 14 -37 12 -29 -2 -38 -7 -37 -20 1 -11 -5
-18 -15 -18 -19 0 -21 11 -21 120 -1 88 -13 117 -51 125 -16 4 -29 11 -29 16
0 5 -11 9 -25 9 -14 0 -25 5 -25 10 0 6 -6 10 -13 10 -8 0 -22 9 -32 20 -10
11 -23 20 -29 20 -6 0 -20 15 -30 34 -10 19 -32 40 -49 47 -37 16 -87 57 -87
72 0 7 -10 25 -23 40 -20 26 -32 30 -108 39 -79 9 -89 8 -132 -12 l-46 -21
-20 20 c-23 23 -27 41 -10 41 5 0 7 5 4 10 -9 15 -18 12 -36 -10z m-156 -139
c4 -1 7 -12 7 -26 0 -18 -5 -25 -20 -25 -11 0 -20 3 -20 8 0 4 -3 17 -6 29 -5
17 -2 21 13 18 10 -2 21 -4 26 -4z m534 -1143 c-2 -35 -10 -81 -17 -103 -12
-40 -18 -79 -40 -250 -20 -163 -28 -179 -24 -45 7 198 29 365 55 433 19 47 31
31 26 -35z m523 -422 c0 -3 -4 -8 -10 -11 -5 -3 -10 -1 -10 4 0 6 5 11 10 11
6 0 10 -2 10 -4z"/>
<path d="M6952 2528 c6 -18 28 -21 28 -4 0 9 -7 16 -16 16 -9 0 -14 -5 -12
-12z"/>
<path d="M8193 1525 c0 -22 2 -30 4 -17 2 12 2 30 0 40 -3 9 -5 -1 -4 -23z"/>
<path d="M6270 1425 c0 -26 14 -31 40 -15 13 8 12 11 -5 24 -28 21 -35 20 -35
-9z"/>
<path d="M6340 1394 c0 -8 5 -12 10 -9 6 4 8 11 5 16 -9 14 -15 11 -15 -7z"/>
<path d="M8460 1304 c-30 -8 -70 -15 -88 -15 -18 -1 -36 -7 -38 -13 -3 -7 -10
-13 -17 -14 -7 -1 -23 -3 -37 -4 -36 -4 -90 -39 -90 -59 0 -27 20 -28 80 -3
30 12 89 32 130 44 187 56 237 109 60 64z"/>
<path d="M8175 764 c-11 -13 -20 -30 -20 -37 0 -8 -8 -22 -18 -31 -22 -22 -21
-32 2 -53 25 -21 17 -35 -13 -27 -18 4 -25 1 -29 -15 -3 -14 -13 -21 -28 -21
-12 0 -33 -10 -45 -21 -22 -20 -22 -23 -8 -51 14 -26 17 -28 27 -14 11 15 15
14 49 -4 35 -19 68 -18 68 1 0 5 10 9 23 9 28 1 57 22 57 43 0 9 10 23 21 31
l22 15 -27 7 c-33 8 -38 53 -6 61 13 3 20 14 20 28 0 13 2 30 5 37 4 9 -4 19
-17 26 -13 6 -32 18 -43 26 -18 13 -22 12 -40 -10z"/>
<path d="M8124 356 c-3 -9 -14 -16 -24 -16 -11 0 -24 -13 -32 -30 -7 -16 -16
-30 -20 -30 -5 0 -8 -7 -8 -15 0 -17 11 -20 26 -5 5 5 26 7 47 3 28 -4 39 -11
43 -29 3 -13 12 -24 20 -24 8 0 14 -4 14 -10 0 -17 -57 -12 -64 6 -3 8 -10 12
-16 9 -13 -8 -13 -75 0 -75 6 0 10 -24 10 -54 0 -81 4 -86 66 -86 53 0 54 0
54 30 0 32 13 60 43 94 11 13 13 22 6 27 -13 8 -2 119 12 119 5 0 9 16 9 35 0
30 -3 35 -24 35 -13 0 -26 4 -28 9 -1 5 -31 13 -65 17 -53 5 -64 4 -69 -10z"/>
<path d="M7986 42 c-4 -7 -5 -16 -2 -21 4 -5 0 -12 -6 -14 -7 -3 3 -6 22 -6
29 0 33 2 19 12 -9 7 -18 19 -21 27 -3 10 -6 11 -12 2z"/>
<path d="M8040 30 c0 -5 7 -10 15 -10 8 0 15 5 15 10 0 6 -7 10 -15 10 -8 0
-15 -4 -15 -10z"/>
</g>
</svg>
